<svg xmlns="http://www.w3.org/2000/svg" viewBox="0 0 436 334" role="img" aria-label="Global Sports">
  <!-- bottom mass: navy -->
  <path fill="#0a1628" d="M40 200 C40 150 90 120 150 118 C250 112 330 150 360 150 C360 240 290 300 195 300 C120 300 40 260 40 200 Z"/>
  <!-- top swoosh: white -->
  <path fill="#ffffff" d="M70 150 C110 70 200 50 280 56 C330 60 372 72 398 64 C378 120 320 150 250 150 C180 150 120 150 92 175 C80 168 72 160 70 150 Z"/>
  <!-- star: white -->
  <path fill="#ffffff" d="M190 138 L207.63 187.73 L260.38 189.13 L218.53 221.27 L233.50 271.87 L190 242 L146.50 271.87 L161.47 221.27 L119.62 189.13 L172.37 187.73 Z"/>
</svg>
